{"title":"Behind.Enemy.Lines.2001.BluRay.720p.AAC.MP4.Raven","uid":11015276,"size":887976926,"categoryP":"video","categoryS":"hd___movies","magnet":"?xt=urn:btih:78b15f3e7c1d0dde900d97c6c2331c8981d89fe2&amp;dn=Behind.Enemy.Lines.2001.BluRay.720p.AAC.MP4.Raven&amp;tr=udp%3A%2F%2Ftracker.openbittorrent.com%3A80&amp;tr=udp%3A%2F%2Fopen.demonii.com%3A1337&amp;tr=udp%3A%2F%2Ftracker.coppersurfer.tk%3A6969&amp;tr=udp%3A%2F%2Fexodus.desync.com%3A6969","seeders":1,"leechers":1,"uploader":"Raven1969","files":-1,"time":1410463431,"description":"Behind.Enemy.Lines.2001.BluRay.720p.AAC.MP4.Raven.\n\n\n\n\nScreen images:\n\n\n  &lt;a href=&quot;\nhttp://i.imgur.com/6EEsvFg.png&quot; rel=&quot;nofollow&quot; target=&quot;_NEW&quot;&gt;\nhttp://i.imgur.com/6EEsvFg.png&lt;/a&gt;\n\n\n  &lt;a href=&quot;\nhttp://i.imgur.com/TgFhmqZ.png&quot; rel=&quot;nofollow&quot; target=&quot;_NEW&quot;&gt;\nhttp://i.imgur.com/TgFhmqZ.png&lt;/a&gt;\n\n\n  &lt;a href=&quot;\nhttp://i.imgur.com/swwwWCi.png&quot; rel=&quot;nofollow&quot; target=&quot;_NEW&quot;&gt;\nhttp://i.imgur.com/swwwWCi.png&lt;/a&gt;\n\n\n\n\nIMDB:\n\n\n\n  &lt;a href=&quot;\nhttp://www.imdb.com/title/tt0159273&quot; rel=&quot;nofollow&quot; target=&quot;_NEW&quot;&gt;\nhttp://www.imdb.com/title/tt0159273&lt;/a&gt;\n\n\n\n\nIMDB Rating:  6.4\n\n\n\n\nStoryline:\n\nA Navy navigator is shot down over enemy territory and is ruthlessly pursued by a secret police enforcer and the opposing troops. Meanwhile his commanding officer goes against orders in an attempt to rescue him.\n\nFighter navigator Chris Burnett wants out: he was looking for something more than the boring recon missions he's been flying. He finds himself flying the lone Christmas day mission over war-torn Bosnia. But when he talks pilot Stackhouse into flying slightly off-course to check out an interesting target, the two get shot down. Burnett is soon alone, trying to outrun a pursuing army, while commanding officer Reigert finds his rescue operation hamstrung by politics, forcing Burnett to run far out of his way. \n\n\n\n\nGeneral\n\n    \nFormat                                   : MPEG-4\nFormat profile                           : Base Media\nCodec ID                                 : isom\nFile size                                : 845 MiB\nDuration                                 : 1h 45mn\nOverall bit rate mode                    : Variable\nOverall bit rate                         : 1 117 Kbps\nMovie name                               : Behind Enemy Lines\nPerformer                                : John Moore\nGenre                                    : Drama\nDescription                              : Encoded by Raven\nRecorded date                            : 2001-11-30\nEncoded date                             : UTC 2014-09-11 15:12:11\nTagged date                              : UTC 2014-09-11 15:50:14\nCopyright                                : F**k The MPAA\nTitle/Sort                               : Behind Enemy Lines\nLongDescription                          : While flying a routine reconnaissance mission over Bosnia, fighter pilot Chris Burnett photographs something he wasn't supposed to see and gets shot down behind enemy lines, where he must outrun an army led by a ruthless Serbian general. With time running out and a deadly tracker on his trail, Burnett's commanding officer decides to risk his career and launch a renegade rescue mission to save his life.\nHDVideo                                  : Yes\nContentRating                            : mpaa|PG-13|\n\n\n\n\n\nVideo\n\n\nID                                       : 2\nFormat                                   : AVC\nFormat/Info                              : Advanced Video Codec\nFormat profile                           : &lt;a class=&quot;__cf_email__&quot; href=&quot;/cdn-cgi/l/email-protection&quot; data-cfemail=&quot;db93b2bcb39b97e8f5ea&quot;&gt;[email&amp;#160;protected]&lt;/a&gt;&lt;script cf-hash='f9e31' type=&quot;text/javascript&quot;&gt;\n/* &lt;![CDATA[ */!function(){try{var t=&quot;currentScript&quot;in document?document.currentScript:function(){for(var t=document.getElementsByTagName(&quot;script&quot;),e=t.length;e--;)if(t[e].getAttribute(&quot;cf-hash&quot;))return t[e]}();if(t&amp;&amp;t.previousSibling){var e,r,n,i,c=t.previousSibling,a=c.getAttribute(&quot;data-cfemail&quot;);if(a){for(e=&quot;&quot;,r=parseInt(a.substr(0,2),16),n=2;a.length-n;n+=2)i=parseInt(a.substr(n,2),16)^r,e+=String.fromCharCode(i);e=document.createTextNode(e),c.parentNode.replaceChild(e,c)}}}catch(u){}}();/* ]]&gt; */&lt;/script&gt;\nFormat settings, CABAC                   : Yes\nFormat settings, ReFrames                : 4 frames\nCodec ID                                 : avc1\nCodec ID/Info                            : Advanced Video Coding\nDuration                                 : 1h 45mn\nSource duration                          : 1h 45mn\nBit rate                                 : 976 Kbps\nWidth                                    : 1 280 pixels\nHeight                                   : 544 pixels\nDisplay aspect ratio                     : 2.35:1\nFrame rate mode                          : Variable\nFrame rate                               : 23.976 fps\nOriginal frame rate                      : 25.000 fps\nMinimum frame rate                       : 23.810 fps\nMaximum frame rate                       : 24.390 fps\nColor space                              : YUV\nChroma subsampling                       : 4:2:0\nBit depth                                : 8 bits\nScan type                                : Progressive\nBits/(Pixel*Frame)                       : 0.058\nStream size                              : 738 MiB (87%)\nSource stream size                       : 738 MiB (87%)\nLanguage                                 : English\nEncoded date                             : UTC 2014-09-11 15:12:11\nTagged date                              : UTC 2014-09-11 15:12:11\nmdhd_Duration                            : 2053499\n\n\n\nAudio\n\nID                                       : 1\nFormat                                   : AAC\nFormat/Info                              : Advanced Audio Codec\nFormat profile                           : LC\nCodec ID                                 : 40\nDuration                                 : 1h 45mn\nSource duration                          : 1h 45mn\nBit rate mode                            : Variable\nBit rate                                 : 128 Kbps\nMaximum bit rate                         : 4 157 Mbps\nChannel(s)                               : 2 channels\nChannel positions                        : Front: L R\nSampling rate                            : 48.0 KHz\nCompression mode                         : Lossy\nStream size                              : 97.0 MiB (11%)\nSource stream size                       : 97.0 MiB (11%)\nLanguage                                 : English\nEncoded date                             : UTC 2014-09-11 15:12:11\nTagged date                              : UTC 2014-09-11 15:12:11\nmdhd_Duration                            : 6348791\n\n\n\n\nPLEASE  SEED FOR AS LONG AS POSSIBLE TO KEEP THE TORRENT ALIVE :-)","torrent":{"xt":"urn:btih:78b15f3e7c1d0dde900d97c6c2331c8981d89fe2","amp;dn":"Behind.Enemy.Lines.2001.BluRay.720p.AAC.MP4.Raven","amp;tr":["udp%3A%2F%2Ftracker.openbittorrent.com%3A80","udp%3A%2F%2Fopen.demonii.com%3A1337","udp%3A%2F%2Ftracker.coppersurfer.tk%3A6969","udp%3A%2F%2Fexodus.desync.com%3A6969"],"infoHash":"78b15f3e7c1d0dde900d97c6c2331c8981d89fe2","infoHashBuffer":{"type":"Buffer","data":[120,177,95,62,124,29,13,222,144,13,151,198,194,51,28,137,129,216,159,226]},"announce":[],"urlList":[]}}